<?xml version="1.0" encoding="UTF-8" standalone="no"?>
<!DOCTYPE svg PUBLIC "-//W3C//DTD SVG 1.1//EN"
 "http://www.w3.org/Graphics/SVG/1.1/DTD/svg11.dtd">
<!-- Generated by graphviz version 2.38.0 (20140413.2041)
 -->
<!-- Title: DataFrameDAG Pages: 1 -->
<svg width="611pt" height="720pt"
 viewBox="0.00 0.00 611.48 720.00" xmlns="http://www.w3.org/2000/svg" xmlns:xlink="http://www.w3.org/1999/xlink">
<g id="graph0" class="graph" transform="scale(1 1) rotate(0) translate(4 716)">
<title>DataFrameDAG</title>
<polygon fill="white" stroke="none" points="-4,4 -4,-716 607.48,-716 607.48,4 -4,4"/>
<g id="clust1" class="cluster"><title>clusterSTAGE1</title>
<polygon fill="none" stroke="black" points="15.4805,-8 15.4805,-704 595.48,-704 595.48,-8 15.4805,-8"/>
<text text-anchor="middle" x="305.48" y="-688.8" font-family="Times,serif" font-size="14.00">Stage 1</text>
</g>
<!-- START -->
<g id="node1" class="node"><title>START</title>
<ellipse fill="Pink" stroke="black" cx="190.48" cy="-656" rx="27" ry="18"/>
<text text-anchor="middle" x="190.48" y="-651.8" font-family="Times,serif" font-size="14.00">start</text>
</g>
<!-- EXPR1 -->
<g id="node2" class="node"><title>EXPR1</title>
<polygon fill="LightGrey" stroke="black" points="116.955,-565.5 116.955,-601.5 264.006,-601.5 264.006,-565.5 116.955,-565.5"/>
<text text-anchor="middle" x="190.48" y="-579.3" font-family="Times,serif" font-size="14.00">Collection: pyodps_iris</text>
</g>
<!-- START&#45;&gt;EXPR1 -->
<g id="edge1" class="edge"><title>START&#45;&gt;EXPR1</title>
<path fill="none" stroke="black" d="M190.48,-637.934C190.48,-630.17 190.48,-620.784 190.48,-612.06"/>
<polygon fill="black" stroke="black" points="193.981,-611.899 190.48,-601.899 186.981,-611.899 193.981,-611.899"/>
</g>
<!-- EXPR2 -->
<g id="node3" class="node"><title>EXPR2</title>
<polygon fill="none" stroke="black" points="43.0493,-256.5 43.0493,-322.5 211.912,-322.5 211.912,-256.5 43.0493,-256.5"/>
<text text-anchor="middle" x="105.091" y="-307.3" font-family="Times,serif" font-size="14.00">Column[Sequence]</text>
<polyline fill="none" stroke="black" points="43.0493,-300.5 167.132,-300.5 "/>
<text text-anchor="middle" x="105.091" y="-285.3" font-family="Times,serif" font-size="14.00">name: name</text>
<polyline fill="none" stroke="black" points="43.0493,-278.5 167.132,-278.5 "/>
<text text-anchor="middle" x="105.091" y="-263.3" font-family="Times,serif" font-size="14.00">type: STRING</text>
<polyline fill="none" stroke="black" points="167.132,-256.5 167.132,-322.5 "/>
<text text-anchor="middle" x="189.522" y="-285.3" font-family="Times,serif" font-size="14.00">input</text>
</g>
<!-- EXPR1&#45;&gt;EXPR2 -->
<g id="edge2" class="edge"><title>EXPR1&#45;&gt;EXPR2:f0</title>
<path fill="none" stroke="black" d="M154.824,-565.316C140.813,-556.553 126.246,-544.444 118.48,-529 76.5507,-445.606 181.412,-421.56 189.045,-333.213"/>
<polygon fill="black" stroke="black" points="192.551,-333.14 189.48,-323 185.557,-332.842 192.551,-333.14"/>
</g>
<!-- EXPR3 -->
<g id="node4" class="node"><title>EXPR3</title>
<polygon fill="none" stroke="black" points="127.049,-462.5 127.049,-528.5 295.912,-528.5 295.912,-462.5 127.049,-462.5"/>
<text text-anchor="middle" x="189.091" y="-513.3" font-family="Times,serif" font-size="14.00">Column[Sequence]</text>
<polyline fill="none" stroke="black" points="127.049,-506.5 251.132,-506.5 "/>
<text text-anchor="middle" x="189.091" y="-491.3" font-family="Times,serif" font-size="14.00">name: sepalwidth</text>
<polyline fill="none" stroke="black" points="127.049,-484.5 251.132,-484.5 "/>
<text text-anchor="middle" x="189.091" y="-469.3" font-family="Times,serif" font-size="14.00">type: FLOAT64</text>
<polyline fill="none" stroke="black" points="251.132,-462.5 251.132,-528.5 "/>
<text text-anchor="middle" x="273.522" y="-491.3" font-family="Times,serif" font-size="14.00">input</text>
</g>
<!-- EXPR1&#45;&gt;EXPR3 -->
<g id="edge3" class="edge"><title>EXPR1&#45;&gt;EXPR3:f0</title>
<path fill="none" stroke="black" d="M246.762,-565.467C258.326,-559.116 268.129,-550.581 271.864,-539.221"/>
<polygon fill="black" stroke="black" points="275.376,-539.424 273.48,-529 268.462,-538.331 275.376,-539.424"/>
</g>
<!-- EXPR5 -->
<g id="node6" class="node"><title>EXPR5</title>
<polygon fill="none" stroke="black" points="314.049,-462.5 314.049,-528.5 482.912,-528.5 482.912,-462.5 314.049,-462.5"/>
<text text-anchor="middle" x="376.091" y="-513.3" font-family="Times,serif" font-size="14.00">Column[Sequence]</text>
<polyline fill="none" stroke="black" points="314.049,-506.5 438.132,-506.5 "/>
<text text-anchor="middle" x="376.091" y="-491.3" font-family="Times,serif" font-size="14.00">name: name</text>
<polyline fill="none" stroke="black" points="314.049,-484.5 438.132,-484.5 "/>
<text text-anchor="middle" x="376.091" y="-469.3" font-family="Times,serif" font-size="14.00">type: STRING</text>
<polyline fill="none" stroke="black" points="438.132,-462.5 438.132,-528.5 "/>
<text text-anchor="middle" x="460.522" y="-491.3" font-family="Times,serif" font-size="14.00">input</text>
</g>
<!-- EXPR1&#45;&gt;EXPR5 -->
<g id="edge5" class="edge"><title>EXPR1&#45;&gt;EXPR5:f0</title>
<path fill="none" stroke="black" d="M264.259,-582.11C337.331,-579.85 440.763,-570.885 458.001,-538.706"/>
<polygon fill="black" stroke="black" points="461.396,-539.555 460.48,-529 454.614,-537.823 461.396,-539.555"/>
</g>
<!-- EXPR9 -->
<g id="node10" class="node"><title>EXPR9</title>
<polygon fill="LightGrey" stroke="black" points="23.9077,-183.5 23.9077,-219.5 425.053,-219.5 425.053,-183.5 23.9077,-183.5"/>
<text text-anchor="middle" x="91.7871" y="-197.3" font-family="Times,serif" font-size="14.00">GroupBy[Collection]</text>
<polyline fill="none" stroke="black" points="159.666,-183.5 159.666,-219.5 "/>
<text text-anchor="middle" x="195.267" y="-197.3" font-family="Times,serif" font-size="14.00">collection</text>
<polyline fill="none" stroke="black" points="230.867,-183.5 230.867,-219.5 "/>
<text text-anchor="middle" x="248.591" y="-197.3" font-family="Times,serif" font-size="14.00">bys</text>
<polyline fill="none" stroke="black" points="266.315,-183.5 266.315,-219.5 "/>
<text text-anchor="middle" x="310.081" y="-197.3" font-family="Times,serif" font-size="14.00">aggregations</text>
<polyline fill="none" stroke="black" points="353.846,-183.5 353.846,-219.5 "/>
<text text-anchor="middle" x="389.45" y="-197.3" font-family="Times,serif" font-size="14.00">selections</text>
</g>
<!-- EXPR1&#45;&gt;EXPR9 -->
<g id="edge9" class="edge"><title>EXPR1&#45;&gt;EXPR9:f0</title>
<path fill="none" stroke="black" d="M151.572,-565.285C135.401,-556.455 117.615,-544.302 105.48,-529 27.5815,-430.769 -43.9024,-353.845 34.4805,-256 77.9053,-201.793 183.528,-283.773 194.547,-230.246"/>
<polygon fill="black" stroke="black" points="198.058,-230.276 195.48,-220 191.087,-229.641 198.058,-230.276"/>
</g>
<!-- EXPR2&#45;&gt;EXPR9 -->
<g id="edge10" class="edge"><title>EXPR2&#45;&gt;EXPR9:f1</title>
<path fill="none" stroke="black" d="M207.853,-256.465C224.44,-247.979 238.785,-238.618 245.079,-229.446"/>
<polygon fill="black" stroke="black" points="248.385,-230.594 248.48,-220 241.799,-228.223 248.385,-230.594"/>
</g>
<!-- EXPR4 -->
<g id="node5" class="node"><title>EXPR4</title>
<polygon fill="none" stroke="black" points="229.565,-256.5 229.565,-322.5 379.396,-322.5 379.396,-256.5 229.565,-256.5"/>
<text text-anchor="middle" x="282.091" y="-307.3" font-family="Times,serif" font-size="14.00">Sum[Sequence]</text>
<polyline fill="none" stroke="black" points="229.565,-300.5 334.617,-300.5 "/>
<text text-anchor="middle" x="282.091" y="-285.3" font-family="Times,serif" font-size="14.00">name: id</text>
<polyline fill="none" stroke="black" points="229.565,-278.5 334.617,-278.5 "/>
<text text-anchor="middle" x="282.091" y="-263.3" font-family="Times,serif" font-size="14.00">type: FLOAT64</text>
<polyline fill="none" stroke="black" points="334.617,-256.5 334.617,-322.5 "/>
<text text-anchor="middle" x="357.006" y="-285.3" font-family="Times,serif" font-size="14.00">input</text>
</g>
<!-- EXPR3&#45;&gt;EXPR4 -->
<g id="edge4" class="edge"><title>EXPR3&#45;&gt;EXPR4:f0</title>
<path fill="none" stroke="black" d="M203.954,-462.475C198.883,-432.325 196.842,-387.636 220.48,-359 258.131,-313.388 345.952,-377.267 356.449,-332.971"/>
<polygon fill="black" stroke="black" points="359.932,-333.307 357.48,-323 352.97,-332.587 359.932,-333.307"/>
</g>
<!-- EXPR6 -->
<g id="node7" class="node"><title>EXPR6</title>
<polygon fill="none" stroke="black" points="229.565,-359.5 229.565,-425.5 379.396,-425.5 379.396,-359.5 229.565,-359.5"/>
<text text-anchor="middle" x="282.091" y="-410.3" font-family="Times,serif" font-size="14.00">Sum[Sequence]</text>
<polyline fill="none" stroke="black" points="229.565,-403.5 334.617,-403.5 "/>
<text text-anchor="middle" x="282.091" y="-388.3" font-family="Times,serif" font-size="14.00">name: id</text>
<polyline fill="none" stroke="black" points="229.565,-381.5 334.617,-381.5 "/>
<text text-anchor="middle" x="282.091" y="-366.3" font-family="Times,serif" font-size="14.00">type: FLOAT64</text>
<polyline fill="none" stroke="black" points="334.617,-359.5 334.617,-425.5 "/>
<text text-anchor="middle" x="357.006" y="-388.3" font-family="Times,serif" font-size="14.00">input</text>
</g>
<!-- EXPR3&#45;&gt;EXPR6 -->
<g id="edge6" class="edge"><title>EXPR3&#45;&gt;EXPR6:f0</title>
<path fill="none" stroke="black" d="M295.563,-462.376C318.89,-452.539 340.671,-442.209 351.078,-434.188"/>
<polygon fill="black" stroke="black" points="354.078,-436.034 357.48,-426 348.563,-431.722 354.078,-436.034"/>
</g>
<!-- EXPR4&#45;&gt;EXPR9 -->
<g id="edge11" class="edge"><title>EXPR4&#45;&gt;EXPR9:f3</title>
<path fill="none" stroke="black" d="M308.449,-256.49C309.251,-248.233 309.95,-239.162 310.279,-230.28"/>
<polygon fill="black" stroke="black" points="313.784,-230.067 310.48,-220 306.785,-229.93 313.784,-230.067"/>
</g>
<!-- EXPR5&#45;&gt;EXPR9 -->
<g id="edge12" class="edge"><title>EXPR5&#45;&gt;EXPR9:f4</title>
<path fill="none" stroke="black" d="M396.745,-462.393C394.229,-413.109 389.832,-315.537 389.5,-230.089"/>
<polygon fill="black" stroke="black" points="393,-229.993 389.48,-220 386,-230.007 393,-229.993"/>
</g>
<!-- EXPR8 -->
<g id="node9" class="node"><title>EXPR8</title>
<polygon fill="none" stroke="black" points="417.23,-256.5 417.23,-322.5 587.73,-322.5 587.73,-256.5 417.23,-256.5"/>
<text text-anchor="middle" x="469.756" y="-307.3" font-family="Times,serif" font-size="14.00">Add[Sequence]</text>
<polyline fill="none" stroke="black" points="417.23,-300.5 522.282,-300.5 "/>
<text text-anchor="middle" x="469.756" y="-285.3" font-family="Times,serif" font-size="14.00">name: id</text>
<polyline fill="none" stroke="black" points="417.23,-278.5 522.282,-278.5 "/>
<text text-anchor="middle" x="469.756" y="-263.3" font-family="Times,serif" font-size="14.00">type: FLOAT64</text>
<polyline fill="none" stroke="black" points="522.282,-256.5 522.282,-322.5 "/>
<text text-anchor="middle" x="538.451" y="-285.3" font-family="Times,serif" font-size="14.00">lhs</text>
<polyline fill="none" stroke="black" points="554.62,-256.5 554.62,-322.5 "/>
<text text-anchor="middle" x="571.175" y="-285.3" font-family="Times,serif" font-size="14.00">rhs</text>
</g>
<!-- EXPR6&#45;&gt;EXPR8 -->
<g id="edge7" class="edge"><title>EXPR6&#45;&gt;EXPR8:f0</title>
<path fill="none" stroke="black" d="M379.485,-383.986C440.978,-375.898 520.315,-360.322 535.796,-332.799"/>
<polygon fill="black" stroke="black" points="539.214,-333.569 538.48,-323 532.463,-331.72 539.214,-333.569"/>
</g>
<!-- EXPR7 -->
<g id="node8" class="node"><title>EXPR7</title>
<polygon fill="none" stroke="black" points="521.796,-374.5 521.796,-410.5 587.165,-410.5 587.165,-374.5 521.796,-374.5"/>
<text text-anchor="middle" x="554.48" y="-388.3" font-family="Times,serif" font-size="14.00">Scalar: 3</text>
</g>
<!-- EXPR7&#45;&gt;EXPR8 -->
<g id="edge8" class="edge"><title>EXPR7&#45;&gt;EXPR8:f1</title>
<path fill="none" stroke="black" d="M561.199,-374.336C565.06,-363.219 569.434,-348.087 570.939,-333.208"/>
<polygon fill="black" stroke="black" points="574.446,-333.171 571.48,-323 567.455,-332.8 574.446,-333.171"/>
</g>
<!-- EXPR8&#45;&gt;EXPR9 -->
<g id="edge13" class="edge"><title>EXPR8&#45;&gt;EXPR9:f4</title>
<path fill="none" stroke="black" d="M489.654,-256.104C478.912,-234.268 461.347,-208.43 436.68,-202.674"/>
<polygon fill="black" stroke="black" points="436.815,-199.167 426.48,-201.5 436.015,-206.121 436.815,-199.167"/>
</g>
<!-- COMPILED9 -->
<g id="node11" class="node"><title>COMPILED9</title>
<polygon fill="SkyBlue" stroke="black" points="96.4805,-16.5 96.4805,-146.5 352.48,-146.5 352.48,-16.5 96.4805,-16.5"/>
<text text-anchor="start" x="108.48" y="-127.3" font-family="Times,serif" font-size="14.00">SELECT </text>
<text text-anchor="start" x="108.48" y="-107.3" font-family="Times,serif" font-size="14.00"> &#160;t1.`name`,</text>
<text text-anchor="start" x="108.48" y="-87.3" font-family="Times,serif" font-size="14.00"> &#160;SUM(t1.`sepalwidth`) + 3 AS `id` </text>
<text text-anchor="start" x="108.266" y="-67.3" font-family="Times,serif" font-size="14.00">FROM test_pyodps_dev.`pyodps_iris` t1 </text>
<text text-anchor="start" x="108.48" y="-47.3" font-family="Times,serif" font-size="14.00">GROUP BY </text>
<text text-anchor="start" x="108.48" y="-27.3" font-family="Times,serif" font-size="14.00"> &#160;t1.`name`</text>
</g>
<!-- EXPR9&#45;&gt;COMPILED9 -->
<g id="edge14" class="edge"><title>EXPR9&#45;&gt;COMPILED9</title>
<path fill="none" stroke="black" stroke-dasharray="5,2" d="M224.48,-183.342C224.48,-173.434 224.48,-160.283 224.48,-146.761"/>
</g>
</g>
</svg>
