<?xml version="1.0" encoding="UTF-8" standalone="no"?>
<!DOCTYPE svg PUBLIC "-//W3C//DTD SVG 1.1//EN"
 "http://www.w3.org/Graphics/SVG/1.1/DTD/svg11.dtd">
<!-- Generated by graphviz version 2.38.0 (20140413.2041)
 -->
<!-- Title: %3 Pages: 1 -->
<svg width="159pt" height="294pt"
 viewBox="0.00 0.00 158.50 294.00" xmlns="http://www.w3.org/2000/svg" xmlns:xlink="http://www.w3.org/1999/xlink">
<g id="graph0" class="graph" transform="scale(1 1) rotate(0) translate(4 290)">
<title>%3</title>
<polygon fill="white" stroke="none" points="-4,4 -4,-290 154.5,-290 154.5,4 -4,4"/>
<!-- node1 -->
<g id="node1" class="node"><title>node1</title>
<polygon fill="white" stroke="none" points="77.5,-253 77.5,-282 142.5,-282 142.5,-253 77.5,-253"/>
<text text-anchor="start" x="80" y="-268.3" font-family="Times New Roman,serif" font-size="14.00">DataFrame</text>
<text text-anchor="start" x="99" y="-257.1" font-family="Times New Roman,serif" font-size="8.00" fill="gray">output</text>
<polygon fill="none" stroke="black" points="77.5,-253 77.5,-282 142.5,-282 142.5,-253 77.5,-253"/>
</g>
<!-- node2 -->
<g id="node2" class="node"><title>node2</title>
<polygon fill="white" stroke="none" points="79.5,-170 79.5,-209 140.5,-209 140.5,-170 79.5,-170"/>
<text text-anchor="start" x="101" y="-200.1" font-family="Times New Roman,serif" font-size="8.00" fill="gray">input</text>
<text text-anchor="start" x="97.5" y="-185.3" font-family="Times New Roman,serif" font-size="14.00">Split</text>
<text text-anchor="start" x="82" y="-174.1" font-family="Times New Roman,serif" font-size="8.00" fill="gray">output1</text>
<text text-anchor="start" x="111" y="-174.1" font-family="Times New Roman,serif" font-size="8.00" fill="gray">output2</text>
<polygon fill="none" stroke="black" points="79.5,-170 79.5,-209 140.5,-209 140.5,-170 79.5,-170"/>
</g>
<!-- node1&#45;&gt;node2 -->
<g id="edge1" class="edge"><title>node1:output&#45;&gt;node2:input</title>
<path fill="none" stroke="black" d="M110,-248.873C110,-241.246 110,-232.064 110,-223.264"/>
<polygon fill="black" stroke="black" points="113.5,-223.225 110,-213.225 106.5,-223.225 113.5,-223.225"/>
</g>
<!-- node3 -->
<g id="node3" class="node"><title>node3</title>
<polygon fill="white" stroke="none" points="8,-87 8,-126 120,-126 120,-87 8,-87"/>
<text text-anchor="start" x="54.5" y="-117.1" font-family="Times New Roman,serif" font-size="8.00" fill="gray">input</text>
<text text-anchor="start" x="10" y="-102.3" font-family="Times New Roman,serif" font-size="14.00">LogisticRegression</text>
<text text-anchor="start" x="52.5" y="-91.1" font-family="Times New Roman,serif" font-size="8.00" fill="gray">output</text>
<polygon fill="none" stroke="black" points="8,-87 8,-126 120,-126 120,-87 8,-87"/>
</g>
<!-- node2&#45;&gt;node3 -->
<g id="edge2" class="edge"><title>node2:output1&#45;&gt;node3:input</title>
<path fill="none" stroke="black" d="M97.1864,-165.937C92.4412,-157.581 86.971,-147.949 81.8581,-138.946"/>
<polygon fill="black" stroke="black" points="84.8862,-137.19 76.9044,-130.223 78.7992,-140.647 84.8862,-137.19"/>
</g>
<!-- node4 -->
<g id="node4" class="node"><title>node4</title>
<polygon fill="white" stroke="none" points="78.5,-4 78.5,-43 141.5,-43 141.5,-4 78.5,-4"/>
<text text-anchor="start" x="85" y="-34.1" font-family="Times New Roman,serif" font-size="8.00" fill="gray">model</text>
<text text-anchor="start" x="116.5" y="-34.1" font-family="Times New Roman,serif" font-size="8.00" fill="gray">input</text>
<text text-anchor="start" x="81.5" y="-19.3" font-family="Times New Roman,serif" font-size="14.00">Prediction</text>
<text text-anchor="start" x="99" y="-8.1" font-family="Times New Roman,serif" font-size="8.00" fill="red">output</text>
<polygon fill="none" stroke="black" points="78.5,-4 78.5,-43 141.5,-43 141.5,-4 78.5,-4"/>
</g>
<!-- node2&#45;&gt;node4 -->
<g id="edge3" class="edge"><title>node2:output2&#45;&gt;node4:input</title>
<path fill="none" stroke="black" d="M123.181,-165.967C128.611,-155.418 134.264,-142.455 137,-130 141.481,-109.597 141.481,-103.403 137,-83 135.012,-73.9507 131.485,-64.6332 127.621,-56.1684"/>
<polygon fill="black" stroke="black" points="130.7,-54.4971 123.181,-47.0334 124.405,-57.5573 130.7,-54.4971"/>
</g>
<!-- node3&#45;&gt;node4 -->
<g id="edge4" class="edge"><title>node3:output&#45;&gt;node4:model</title>
<path fill="none" stroke="black" d="M76.8136,-82.937C81.5588,-74.5812 87.029,-64.9489 92.1419,-55.9458"/>
<polygon fill="black" stroke="black" points="95.2008,-57.647 97.0956,-47.2229 89.1138,-54.1902 95.2008,-57.647"/>
</g>
</g>
</svg>
